<svg width="109" height="109" viewBox="0 0 109 109" fill="none" xmlns="http://www.w3.org/2000/svg">
<path d="M54.5 109C84.5995 109 109 84.5995 109 54.5C109 24.4005 84.5995 0 54.5 0C24.4005 0 0 24.4005 0 54.5C0 84.5995 24.4005 109 54.5 109Z" fill="#0657F9"/>
<path fill-rule="evenodd" clip-rule="evenodd" d="M51.5451 28.1112V20.5878C51.5493 20.3122 51.6288 20.043 51.7749 19.8093C51.921 19.5756 52.1282 19.3863 52.3742 19.2618C52.6201 19.1373 52.8953 19.0824 53.1702 19.103C53.445 19.1237 53.709 19.219 53.9336 19.3787L68.6176 29.6945C68.8128 29.8299 68.9724 30.0107 69.0826 30.2212C69.1927 30.4317 69.2503 30.6658 69.2503 30.9035C69.2503 31.1411 69.1927 31.3752 69.0826 31.5857C68.9724 31.7963 68.8128 31.977 68.6176 32.1124L53.9336 42.4282C53.709 42.5879 53.445 42.6833 53.1702 42.7039C52.8953 42.7245 52.6201 42.6696 52.3742 42.5451C52.1282 42.4206 51.921 42.2313 51.7749 41.9976C51.6288 41.7639 51.5493 41.4947 51.5451 41.2191V34.0723C47.0388 34.645 42.7935 36.5056 39.3184 39.4309C35.8433 42.3563 33.2859 46.2221 31.9531 50.5646C30.6204 54.9072 30.5687 59.542 31.8044 63.9132C33.0402 68.2843 35.5107 72.2062 38.9198 75.2082C42.3289 78.2102 46.5317 80.1649 51.0241 80.8379C55.5164 81.5108 60.1075 80.8734 64.2466 79.0021C68.3857 77.1307 71.8971 74.105 74.3594 70.2878C76.8217 66.4706 78.1304 62.024 78.1286 57.4816C78.1286 56.6986 78.4396 55.9478 78.9932 55.3941C79.5468 54.8405 80.2977 54.5295 81.0807 54.5295C81.8636 54.5295 82.6145 54.8405 83.1681 55.3941C83.7217 55.9478 84.0327 56.6986 84.0327 57.4816C84.0329 63.1938 82.3759 68.7834 79.2625 73.5726C76.1491 78.3617 71.7131 82.1448 66.4925 84.463C61.2718 86.7812 55.4907 87.535 49.8501 86.6329C44.2096 85.7309 38.9519 83.2118 34.7146 79.381C30.4773 75.5503 27.4423 70.5725 25.9778 65.0512C24.5133 59.5299 24.6821 53.7023 26.4637 48.2751C28.2453 42.8478 31.5632 38.054 36.0152 34.4749C40.4671 30.8958 45.8618 28.6852 51.5451 28.1112V28.1112Z" fill="white"/>
</svg>
