<svg width="109" height="109" viewBox="0 0 109 109" fill="none" xmlns="http://www.w3.org/2000/svg">
<g clip-path="url(#clip0)">
<path d="M38.5599 15.8947L6.77689 2.26973L2.23646 15.8947L11.3173 54.4991L97.5854 52.2283L106.666 15.8947L99.8558 2.26973L70.3427 15.8947H38.5599Z" fill="#333333"/>
<path d="M31.7917 40.875L79.4792 45.4167L81.7365 72.6667H31.7917V40.875Z" fill="#FF0A0A"/>
<path d="M63.5315 77.2074H36.289V90.8324H63.5315V77.2074Z" fill="#333333" fill-opacity="0.71"/>
<g filter="url(#filter0_i)">
<path d="M7.18147 48.4332C7.84596 49.1912 8.0358 50.234 7.75104 51.0869L1.01157 71.9391C0.821724 72.5082 0.821724 73.0768 1.01157 73.5505L6.8967 93.7391C7.37131 95.256 8.89009 96.1089 10.3139 95.6348L30.5323 90.0426C31.3865 89.7583 32.3358 90.0426 33.0951 90.6112L36.6072 93.4548C36.7022 93.5497 36.7022 93.5497 36.7971 93.5497L45.5298 99.616C46.0044 99.9003 46.5739 100.09 47.1434 100.09H61.7617C62.3312 100.09 62.9007 99.9003 63.3753 99.616L72.108 93.5497C72.203 93.5497 72.203 93.4548 72.2979 93.4548L75.81 90.6112C76.4744 90.0426 77.4236 89.8532 78.3728 90.0426L98.5909 95.6348C100.11 96.014 101.629 95.1611 102.009 93.7391L107.894 73.5505C108.083 72.9819 108.083 72.4132 107.894 71.9391L101.154 51.0869C100.87 50.1391 101.059 49.1912 101.724 48.4332L108.938 16.1123C109.033 15.6384 109.033 15.1645 108.843 14.6906L104.571 1.8949C104.097 0.378381 102.388 -0.37988 100.87 0.188816L69.3553 11.9419C69.0706 12.0366 68.6909 12.1314 68.4061 12.1314H40.499C40.1194 12.1314 39.8346 12.0366 39.5498 11.9419L8.0358 0.188816C6.51702 -0.37988 4.80844 0.378381 4.33383 1.8949L0.157272 14.6906C-0.032572 15.0697 -0.032572 15.6384 0.0623498 16.1123L7.18147 48.4332ZM63.5652 64.7356L65.9382 59.8069C66.2229 59.2383 66.9823 58.954 67.5518 59.2383L73.2471 61.7975C74.2912 62.2712 74.1963 63.7882 73.0572 64.1669L65.0839 66.5368C64.0398 66.8211 63.0906 65.7783 63.5652 64.7356ZM63.0906 30.5193C62.521 30.0453 62.521 29.0975 63.1855 28.7184L99.0656 4.16969C99.6355 3.79056 100.49 3.98012 100.775 4.73837L105.236 16.9654C105.331 17.1549 105.331 17.3445 105.236 17.6288L97.9265 45.7791C97.7367 46.3482 97.1671 46.6325 96.5976 46.4426L76.8541 41.1349C76.6642 41.1349 76.5693 41.0401 76.4744 40.9453L63.0906 30.5193ZM45.7196 88.716L46.384 83.2183C46.384 82.934 46.5739 82.6497 46.8586 82.4603L48.1875 81.5125C48.3774 81.4175 48.5672 81.3226 48.7571 81.3226H59.9582C60.148 81.3226 60.4328 81.4175 60.5277 81.5125L61.8566 82.4603C62.1414 82.6497 62.2363 82.934 62.3312 83.2183L62.9007 88.716C62.9956 89.3791 62.4261 89.9482 61.8566 89.9482H46.6688C46.1942 89.9482 45.7196 89.3791 45.7196 88.716ZM35.658 61.7975L41.3533 59.2383C42.0178 58.954 42.6822 59.2383 42.967 59.8069L45.34 64.7356C45.8145 65.6834 44.8654 66.7262 43.8213 66.4419L35.753 64.0725C34.7088 63.7882 34.6139 62.2712 35.658 61.7975ZM3.66938 17.5341C3.57446 17.3445 3.66938 17.0601 3.66938 16.8706L8.13072 4.73837C8.41548 4.0749 9.26977 3.79056 9.83929 4.16969L45.7196 28.7184C46.384 29.1923 46.384 30.0453 45.8145 30.5193L32.4307 40.9453C32.3358 41.0401 32.1459 41.1349 32.051 41.1349L12.3073 46.4426C11.7377 46.6325 11.1682 46.3482 10.9783 45.7791L3.66938 17.5341Z" fill="black"/>
</g>
</g>
<defs>
<filter id="filter0_i" x="0" y="0" width="109" height="104.09" filterUnits="userSpaceOnUse" color-interpolation-filters="sRGB">
<feFlood flood-opacity="0" result="BackgroundImageFix"/>
<feBlend mode="normal" in="SourceGraphic" in2="BackgroundImageFix" result="shape"/>
<feColorMatrix in="SourceAlpha" type="matrix" values="0 0 0 0 0 0 0 0 0 0 0 0 0 0 0 0 0 0 127 0" result="hardAlpha"/>
<feOffset dy="4"/>
<feGaussianBlur stdDeviation="2"/>
<feComposite in2="hardAlpha" operator="arithmetic" k2="-1" k3="1"/>
<feColorMatrix type="matrix" values="0 0 0 0 0 0 0 0 0 0 0 0 0 0 0 0 0 0 0.25 0"/>
<feBlend mode="normal" in2="shape" result="effect1_innerShadow"/>
</filter>
<clipPath id="clip0">
<rect width="109" height="109" fill="white"/>
</clipPath>
</defs>
</svg>
