<svg width="104" height="97" viewBox="0 0 104 97" fill="none" xmlns="http://www.w3.org/2000/svg">
<path fill-rule="evenodd" clip-rule="evenodd" d="M22.5038 5.47582C25.4584 1.33949 31.1702 -0.482177 38.5565 0.108727C48.7496 0.945841 62.242 6.41151 75.2419 15.669C88.1925 24.9758 97.6966 36.0554 101.734 45.4114C104.689 52.2068 104.787 58.214 101.833 62.3503L81.5452 90.714C78.5907 94.8503 72.8296 96.672 65.4925 96.0811C55.2994 95.1948 41.7578 89.7785 28.8072 80.4718C15.8073 71.2143 6.35264 60.1344 2.26555 50.7785C-0.68897 43.9831 -0.787069 37.9758 2.16745 33.8395L22.5038 5.47582ZM99.0261 60.3316C101.39 57.0816 100.897 52.2067 98.5828 46.7901C94.6926 37.8773 85.5831 27.3885 73.1741 18.525C60.8143 9.66139 47.962 4.39259 38.2613 3.60472C32.3522 3.1123 27.6748 4.19581 25.3112 7.49503L25.2121 7.69171C22.9963 10.9909 23.4892 15.6689 25.8036 20.9871C29.6937 29.9491 38.8035 40.4376 51.1633 49.3012C63.523 58.1648 76.3744 63.434 86.0751 64.2219C91.8857 64.6651 96.4652 63.631 98.878 60.5288L99.0261 60.3316ZM67.4131 26.5518C73.6176 30.9836 78.1966 36.2524 80.117 40.7334C81.2496 43.2447 81.5448 45.4607 80.4123 46.9872C79.3289 48.5137 77.1134 48.9569 74.4051 48.7107C69.5302 48.3168 63.1287 45.6576 56.9242 41.2258C50.7197 36.794 46.1398 31.5743 44.2194 27.0933C43.1361 24.5819 42.8408 22.3659 43.9241 20.8394C45.0074 19.3129 47.2237 18.8699 49.9813 19.0669C54.807 19.5101 61.2579 22.12 67.4131 26.5518Z" fill="black" fill-opacity="0.1"/>
<path fill-rule="evenodd" clip-rule="evenodd" d="M22.5038 5.47582C25.4584 1.33949 31.1702 -0.482177 38.5565 0.108727C48.7496 0.945841 62.242 6.41151 75.2419 15.669C88.1925 24.9758 97.6966 36.0554 101.734 45.4114C104.689 52.2068 104.787 58.214 101.833 62.3503L81.5452 90.714C78.5907 94.8503 72.8296 96.672 65.4925 96.0811C55.2994 95.1948 41.7578 89.7785 28.8072 80.4718C15.8073 71.2143 6.35264 60.1344 2.26555 50.7785C-0.68897 43.9831 -0.787069 37.9758 2.16745 33.8395L22.5038 5.47582ZM99.0261 60.3316C101.39 57.0816 100.897 52.2067 98.5828 46.7901C94.6926 37.8773 85.5831 27.3885 73.1741 18.525C60.8143 9.66139 47.962 4.39259 38.2613 3.60472C32.3522 3.1123 27.6748 4.19581 25.3112 7.49503L25.2121 7.69171C22.9963 10.9909 23.4892 15.6689 25.8036 20.9871C29.6937 29.9491 38.8035 40.4376 51.1633 49.3012C63.523 58.1648 76.3744 63.434 86.0751 64.2219C91.8857 64.6651 96.4652 63.631 98.878 60.5288L99.0261 60.3316ZM67.4131 26.5518C73.6176 30.9836 78.1966 36.2524 80.117 40.7334C81.2496 43.2447 81.5448 45.4607 80.4123 46.9872C79.3289 48.5137 77.1134 48.9569 74.4051 48.7107C69.5302 48.3168 63.1287 45.6576 56.9242 41.2258C50.7197 36.794 46.1398 31.5743 44.2194 27.0933C43.1361 24.5819 42.8408 22.3659 43.9241 20.8394C45.0074 19.3129 47.2237 18.8699 49.9813 19.0669C54.807 19.5101 61.2579 22.12 67.4131 26.5518Z" fill="url(#paint0_linear)" fill-opacity="0.9"/>
<path fill-rule="evenodd" clip-rule="evenodd" d="M22.5038 5.47582C25.4584 1.33949 31.1702 -0.482177 38.5565 0.108727C48.7496 0.945841 62.242 6.41151 75.2419 15.669C88.1925 24.9758 97.6966 36.0554 101.734 45.4114C104.689 52.2068 104.787 58.214 101.833 62.3503L81.5452 90.714C78.5907 94.8503 72.8296 96.672 65.4925 96.0811C55.2994 95.1948 41.7578 89.7785 28.8072 80.4718C15.8073 71.2143 6.35264 60.1344 2.26555 50.7785C-0.68897 43.9831 -0.787069 37.9758 2.16745 33.8395L22.5038 5.47582ZM99.0261 60.3316C101.39 57.0816 100.897 52.2067 98.5828 46.7901C94.6926 37.8773 85.5831 27.3885 73.1741 18.525C60.8143 9.66139 47.962 4.39259 38.2613 3.60472C32.3522 3.1123 27.6748 4.19581 25.3112 7.49503L25.2121 7.69171C22.9963 10.9909 23.4892 15.6689 25.8036 20.9871C29.6937 29.9491 38.8035 40.4376 51.1633 49.3012C63.523 58.1648 76.3744 63.434 86.0751 64.2219C91.8857 64.6651 96.4652 63.631 98.878 60.5288L99.0261 60.3316ZM67.4131 26.5518C73.6176 30.9836 78.1966 36.2524 80.117 40.7334C81.2496 43.2447 81.5448 45.4607 80.4123 46.9872C79.3289 48.5137 77.1134 48.9569 74.4051 48.7107C69.5302 48.3168 63.1287 45.6576 56.9242 41.2258C50.7197 36.794 46.1398 31.5743 44.2194 27.0933C43.1361 24.5819 42.8408 22.3659 43.9241 20.8394C45.0074 19.3129 47.2237 18.8699 49.9813 19.0669C54.807 19.5101 61.2579 22.12 67.4131 26.5518Z" fill="black" fill-opacity="0.1"/>
<path fill-rule="evenodd" clip-rule="evenodd" d="M22.5038 5.47582C25.4584 1.33949 31.1702 -0.482177 38.5565 0.108727C48.7496 0.945841 62.242 6.41151 75.2419 15.669C88.1925 24.9758 97.6966 36.0554 101.734 45.4114C104.689 52.2068 104.787 58.214 101.833 62.3503L81.5452 90.714C78.5907 94.8503 72.8296 96.672 65.4925 96.0811C55.2994 95.1948 41.7578 89.7785 28.8072 80.4718C15.8073 71.2143 6.35264 60.1344 2.26555 50.7785C-0.68897 43.9831 -0.787069 37.9758 2.16745 33.8395L22.5038 5.47582ZM99.0261 60.3316C101.39 57.0816 100.897 52.2067 98.5828 46.7901C94.6926 37.8773 85.5831 27.3885 73.1741 18.525C60.8143 9.66139 47.962 4.39259 38.2613 3.60472C32.3522 3.1123 27.6748 4.19581 25.3112 7.49503L25.2121 7.69171C22.9963 10.9909 23.4892 15.6689 25.8036 20.9871C29.6937 29.9491 38.8035 40.4376 51.1633 49.3012C63.523 58.1648 76.3744 63.434 86.0751 64.2219C91.8857 64.6651 96.4652 63.631 98.878 60.5288L99.0261 60.3316ZM67.4131 26.5518C73.6176 30.9836 78.1966 36.2524 80.117 40.7334C81.2496 43.2447 81.5448 45.4607 80.4123 46.9872C79.3289 48.5137 77.1134 48.9569 74.4051 48.7107C69.5302 48.3168 63.1287 45.6576 56.9242 41.2258C50.7197 36.794 46.1398 31.5743 44.2194 27.0933C43.1361 24.5819 42.8408 22.3659 43.9241 20.8394C45.0074 19.3129 47.2237 18.8699 49.9813 19.0669C54.807 19.5101 61.2579 22.12 67.4131 26.5518Z" fill="url(#paint1_linear)"/>
<path fill-rule="evenodd" clip-rule="evenodd" d="M22.5038 5.47582C25.4584 1.33949 31.1702 -0.482177 38.5565 0.108727C48.7496 0.945841 62.242 6.41151 75.2419 15.669C88.1925 24.9758 97.6966 36.0554 101.734 45.4114C104.689 52.2068 104.787 58.214 101.833 62.3503L81.5452 90.714C78.5907 94.8503 72.8296 96.672 65.4925 96.0811C55.2994 95.1948 41.7578 89.7785 28.8072 80.4718C15.8073 71.2143 6.35264 60.1344 2.26555 50.7785C-0.68897 43.9831 -0.787069 37.9758 2.16745 33.8395L22.5038 5.47582ZM99.0261 60.3316C101.39 57.0816 100.897 52.2067 98.5828 46.7901C94.6926 37.8773 85.5831 27.3885 73.1741 18.525C60.8143 9.66139 47.962 4.39259 38.2613 3.60472C32.3522 3.1123 27.6748 4.19581 25.3112 7.49503L25.2121 7.69171C22.9963 10.9909 23.4892 15.6689 25.8036 20.9871C29.6937 29.9491 38.8035 40.4376 51.1633 49.3012C63.523 58.1648 76.3744 63.434 86.0751 64.2219C91.8857 64.6651 96.4652 63.631 98.878 60.5288L99.0261 60.3316ZM67.4131 26.5518C73.6176 30.9836 78.1966 36.2524 80.117 40.7334C81.2496 43.2447 81.5448 45.4607 80.4123 46.9872C79.3289 48.5137 77.1134 48.9569 74.4051 48.7107C69.5302 48.3168 63.1287 45.6576 56.9242 41.2258C50.7197 36.794 46.1398 31.5743 44.2194 27.0933C43.1361 24.5819 42.8408 22.3659 43.9241 20.8394C45.0074 19.3129 47.2237 18.8699 49.9813 19.0669C54.807 19.5101 61.2579 22.12 67.4131 26.5518Z" fill="black" fill-opacity="0.1"/>
<path fill-rule="evenodd" clip-rule="evenodd" d="M22.5038 5.47582C25.4584 1.33949 31.1702 -0.482177 38.5565 0.108727C48.7496 0.945841 62.242 6.41151 75.2419 15.669C88.1925 24.9758 97.6966 36.0554 101.734 45.4114C104.689 52.2068 104.787 58.214 101.833 62.3503L81.5452 90.714C78.5907 94.8503 72.8296 96.672 65.4925 96.0811C55.2994 95.1948 41.7578 89.7785 28.8072 80.4718C15.8073 71.2143 6.35264 60.1344 2.26555 50.7785C-0.68897 43.9831 -0.787069 37.9758 2.16745 33.8395L22.5038 5.47582ZM99.0261 60.3316C101.39 57.0816 100.897 52.2067 98.5828 46.7901C94.6926 37.8773 85.5831 27.3885 73.1741 18.525C60.8143 9.66139 47.962 4.39259 38.2613 3.60472C32.3522 3.1123 27.6748 4.19581 25.3112 7.49503L25.2121 7.69171C22.9963 10.9909 23.4892 15.6689 25.8036 20.9871C29.6937 29.9491 38.8035 40.4376 51.1633 49.3012C63.523 58.1648 76.3744 63.434 86.0751 64.2219C91.8857 64.6651 96.4652 63.631 98.878 60.5288L99.0261 60.3316ZM67.4131 26.5518C73.6176 30.9836 78.1966 36.2524 80.117 40.7334C81.2496 43.2447 81.5448 45.4607 80.4123 46.9872C79.3289 48.5137 77.1134 48.9569 74.4051 48.7107C69.5302 48.3168 63.1287 45.6576 56.9242 41.2258C50.7197 36.794 46.1398 31.5743 44.2194 27.0933C43.1361 24.5819 42.8408 22.3659 43.9241 20.8394C45.0074 19.3129 47.2237 18.8699 49.9813 19.0669C54.807 19.5101 61.2579 22.12 67.4131 26.5518Z" fill="url(#paint2_linear)" fill-opacity="0.9"/>
<path fill-rule="evenodd" clip-rule="evenodd" d="M22.5038 5.47582C25.4584 1.33949 31.1702 -0.482177 38.5565 0.108727C48.7496 0.945841 62.242 6.41151 75.2419 15.669C88.1925 24.9758 97.6966 36.0554 101.734 45.4114C104.689 52.2068 104.787 58.214 101.833 62.3503L81.5452 90.714C78.5907 94.8503 72.8296 96.672 65.4925 96.0811C55.2994 95.1948 41.7578 89.7785 28.8072 80.4718C15.8073 71.2143 6.35264 60.1344 2.26555 50.7785C-0.68897 43.9831 -0.787069 37.9758 2.16745 33.8395L22.5038 5.47582ZM99.0261 60.3316C101.39 57.0816 100.897 52.2067 98.5828 46.7901C94.6926 37.8773 85.5831 27.3885 73.1741 18.525C60.8143 9.66139 47.962 4.39259 38.2613 3.60472C32.3522 3.1123 27.6748 4.19581 25.3112 7.49503L25.2121 7.69171C22.9963 10.9909 23.4892 15.6689 25.8036 20.9871C29.6937 29.9491 38.8035 40.4376 51.1633 49.3012C63.523 58.1648 76.3744 63.434 86.0751 64.2219C91.8857 64.6651 96.4652 63.631 98.878 60.5288L99.0261 60.3316ZM67.4131 26.5518C73.6176 30.9836 78.1966 36.2524 80.117 40.7334C81.2496 43.2447 81.5448 45.4607 80.4123 46.9872C79.3289 48.5137 77.1134 48.9569 74.4051 48.7107C69.5302 48.3168 63.1287 45.6576 56.9242 41.2258C50.7197 36.794 46.1398 31.5743 44.2194 27.0933C43.1361 24.5819 42.8408 22.3659 43.9241 20.8394C45.0074 19.3129 47.2237 18.8699 49.9813 19.0669C54.807 19.5101 61.2579 22.12 67.4131 26.5518Z" fill="black" fill-opacity="0.1"/>
<path fill-rule="evenodd" clip-rule="evenodd" d="M22.5038 5.47582C25.4584 1.33949 31.1702 -0.482177 38.5565 0.108727C48.7496 0.945841 62.242 6.41151 75.2419 15.669C88.1925 24.9758 97.6966 36.0554 101.734 45.4114C104.689 52.2068 104.787 58.214 101.833 62.3503L81.5452 90.714C78.5907 94.8503 72.8296 96.672 65.4925 96.0811C55.2994 95.1948 41.7578 89.7785 28.8072 80.4718C15.8073 71.2143 6.35264 60.1344 2.26555 50.7785C-0.68897 43.9831 -0.787069 37.9758 2.16745 33.8395L22.5038 5.47582ZM99.0261 60.3316C101.39 57.0816 100.897 52.2067 98.5828 46.7901C94.6926 37.8773 85.5831 27.3885 73.1741 18.525C60.8143 9.66139 47.962 4.39259 38.2613 3.60472C32.3522 3.1123 27.6748 4.19581 25.3112 7.49503L25.2121 7.69171C22.9963 10.9909 23.4892 15.6689 25.8036 20.9871C29.6937 29.9491 38.8035 40.4376 51.1633 49.3012C63.523 58.1648 76.3744 63.434 86.0751 64.2219C91.8857 64.6651 96.4652 63.631 98.878 60.5288L99.0261 60.3316ZM67.4131 26.5518C73.6176 30.9836 78.1966 36.2524 80.117 40.7334C81.2496 43.2447 81.5448 45.4607 80.4123 46.9872C79.3289 48.5137 77.1134 48.9569 74.4051 48.7107C69.5302 48.3168 63.1287 45.6576 56.9242 41.2258C50.7197 36.794 46.1398 31.5743 44.2194 27.0933C43.1361 24.5819 42.8408 22.3659 43.9241 20.8394C45.0074 19.3129 47.2237 18.8699 49.9813 19.0669C54.807 19.5101 61.2579 22.12 67.4131 26.5518Z" fill="url(#paint3_linear)" fill-opacity="0.9"/>
<defs>
<linearGradient id="paint0_linear" x1="52" y1="0" x2="52" y2="96.1898" gradientUnits="userSpaceOnUse">
<stop stop-color="#F07AB2"/>
</linearGradient>
<linearGradient id="paint1_linear" x1="52" y1="0" x2="52" y2="96.1898" gradientUnits="userSpaceOnUse">
<stop stop-color="#F07AB2"/>
</linearGradient>
<linearGradient id="paint2_linear" x1="52" y1="0" x2="52" y2="96.1898" gradientUnits="userSpaceOnUse">
<stop stop-color="#F07AB2"/>
</linearGradient>
<linearGradient id="paint3_linear" x1="52" y1="0" x2="52" y2="96.1898" gradientUnits="userSpaceOnUse">
<stop stop-color="#FA469B"/>
</linearGradient>
</defs>
</svg>
