<svg width="2" height="2" viewBox="0 0 2 2" fill="none" xmlns="http://www.w3.org/2000/svg">
<path fill-rule="evenodd" clip-rule="evenodd" d="M0.432766 0.113854C0.489584 0.0278509 0.599428 -0.0100255 0.741472 0.00226067C0.937493 0.0196661 1.19696 0.13331 1.44696 0.325793C1.69601 0.519301 1.87878 0.749672 1.95643 0.944203C2.01325 1.08549 2.01514 1.2104 1.95832 1.2964L1.56818 1.88615C1.51136 1.97215 1.40057 2.01003 1.25947 1.99774C1.06345 1.97931 0.803036 1.86669 0.553985 1.67319C0.303987 1.4807 0.122166 1.25033 0.0435683 1.0558C-0.0132494 0.914506 -0.015136 0.789602 0.0416818 0.703598L0.432766 0.113854ZM1.90435 1.25443C1.9498 1.18685 1.94033 1.08549 1.89582 0.972869C1.82101 0.787552 1.64583 0.569468 1.40719 0.385175C1.16951 0.200882 0.922345 0.0913317 0.735794 0.0749501C0.622158 0.0647116 0.532208 0.0872403 0.486754 0.155838L0.484849 0.159928C0.442236 0.228526 0.451716 0.325791 0.496224 0.436367C0.571034 0.622708 0.746222 0.840788 0.983909 1.02508C1.2216 1.20937 1.46874 1.31893 1.65529 1.33532C1.76703 1.34453 1.8551 1.32303 1.9015 1.25853L1.90435 1.25443ZM1.29641 0.55207C1.41572 0.644217 1.50378 0.753767 1.54071 0.846937C1.56249 0.899154 1.56817 0.945229 1.54639 0.976968C1.52556 1.00871 1.48295 1.01792 1.43087 1.0128C1.33712 1.00461 1.21401 0.949322 1.0947 0.857176C0.975379 0.765029 0.887304 0.656499 0.850373 0.563329C0.829539 0.511112 0.823861 0.465037 0.844695 0.433298C0.865528 0.401558 0.908148 0.392348 0.961178 0.396443C1.05398 0.405658 1.17804 0.459924 1.29641 0.55207Z" fill="#0E0F23"/>
</svg>
