<svg width="109" height="109" viewBox="0 0 109 109" fill="none" xmlns="http://www.w3.org/2000/svg">
<path fill-rule="evenodd" clip-rule="evenodd" d="M109 54.5C109 47.367 107.581 40.2341 104.851 33.6439C102.122 27.0538 98.0815 21.0065 93.037 15.9631C87.9935 10.9185 81.9462 6.8779 75.3561 4.14854C68.7659 1.41918 61.633 0 54.5 0C47.367 0 40.2341 1.41918 33.6439 4.14854C27.0538 6.8779 21.0065 10.9185 15.9631 15.9631C10.9185 21.0065 6.8779 27.0538 4.14854 33.6439C1.41918 40.2341 0 47.367 0 54.5C0 61.633 1.41918 68.7659 4.14854 75.3561C6.8779 81.9462 10.9185 87.9935 15.9631 93.037C21.0065 98.0815 27.0538 102.122 33.6439 104.851C40.2341 107.581 47.367 109 54.5 109C61.633 109 68.7659 107.581 75.3561 104.851C81.9462 102.122 87.9935 98.0815 93.037 93.037C98.0815 87.9935 102.122 81.9462 104.851 75.3561C107.581 68.7659 109 61.633 109 54.5Z" fill="#2F80ED"/>
<path fill-rule="evenodd" clip-rule="evenodd" d="M51.6834 29.8933H57.3165V79.1089H51.6834V29.8933Z" fill="white"/>
<path fill-rule="evenodd" clip-rule="evenodd" d="M48.4864 53.0449V47.1633C43.9683 44.9408 40.8575 40.2908 40.8575 34.9149C40.8575 27.383 46.9658 21.2747 54.4999 21.2747C62.9594 21.2747 69.0678 27.383 69.0678 34.9149C69.0678 36.8137 68.6775 38.622 67.7412 40.7704L65.3356 32.9497L60.5134 34.4571L64.7895 50.733L81.3902 44.6258L79.3726 39.8657L73.1814 41.9847C74.302 39.5551 74.5221 37.7686 74.5221 34.9149C74.5221 24.3681 65.9722 15.8181 54.4999 15.8181C43.9531 15.8181 35.4031 24.3681 35.4031 34.9149C35.4031 43.3603 40.8869 50.5248 48.4864 53.0449Z" fill="white"/>
<path fill-rule="evenodd" clip-rule="evenodd" d="M60.5135 55.9574V61.839C65.0316 64.0626 68.1424 68.7115 68.1424 74.0874C68.1424 81.6193 62.0341 87.7276 54.5 87.7276C46.0405 87.7276 39.9321 81.6193 39.9321 74.0874C39.9321 72.1886 40.3223 70.3803 41.2587 68.2319L43.6643 76.0526L48.4864 74.5452L44.2104 58.2693L27.6097 64.3776L29.6273 69.1366L35.8185 67.0176C34.6979 69.4472 34.4778 71.2337 34.4778 74.0874C34.4778 84.6342 43.0277 93.1841 54.5 93.1841C65.0468 93.1841 73.5968 84.6342 73.5968 74.0874C73.5968 65.642 68.113 58.4775 60.5135 55.9574Z" fill="white"/>
</svg>
